<svg width="98" height="93" viewBox="0 0 98 93" fill="none" xmlns="http://www.w3.org/2000/svg">
<g clip-path="url(#clip0_16_60)">
<path fill-rule="evenodd" clip-rule="evenodd" d="M48.854 0.953491C21.839 0.953491 0 22.0326 0 48.1102C0 68.9555 13.993 86.6006 33.405 92.8458C35.832 93.3153 36.721 91.8311 36.721 90.5826C36.721 89.4894 36.641 85.7421 36.641 81.8377C23.051 84.6489 20.221 76.2163 20.221 76.2163C18.037 70.7511 14.801 69.3464 14.801 69.3464C10.353 66.4577 15.125 66.4577 15.125 66.4577C20.059 66.77 22.648 71.2982 22.648 71.2982C27.015 78.4804 34.052 76.451 36.883 75.2016C37.287 72.1567 38.582 70.0488 39.957 68.8779C29.118 67.7847 17.714 63.725 17.714 45.6114C17.714 40.4585 19.654 36.2427 22.728 32.964C22.243 31.7931 20.544 26.9517 23.214 20.4718C23.214 20.4718 27.339 19.2223 36.64 25.3123C40.6221 24.28 44.7288 23.7549 48.854 23.7505C52.979 23.7505 57.184 24.2976 61.067 25.3123C70.369 19.2223 74.494 20.4718 74.494 20.4718C77.164 26.9517 75.464 31.7931 74.979 32.964C78.134 36.2427 79.994 40.4585 79.994 45.6114C79.994 63.725 68.59 67.7061 57.67 68.8779C59.45 70.3611 60.986 73.1713 60.986 77.6219C60.986 83.9456 60.906 89.0209 60.906 90.5817C60.906 91.8311 61.796 93.3153 64.222 92.8467C83.634 86.5997 97.627 68.9555 97.627 48.1102C97.707 22.0326 75.788 0.953491 48.854 0.953491Z" fill="white"/>
</g>
<rect x="0.5" y="1.45349" width="97" height="90.9814" stroke="#59FF00"/>
<defs>
<clipPath id="clip0_16_60">
<rect y="0.953491" width="98" height="91.9814" fill="white"/>
</clipPath>
</defs>
</svg>
