<svg width="98" height="96" viewBox="0 0 98 96" fill="none" xmlns="http://www.w3.org/2000/svg">
<rect x="0.5" y="0.5" width="97" height="95" stroke="#59FF00"/>
<path d="M78.4 12.8H19.6C15.9903 12.8 13.0667 15.664 13.0667 19.2V76.8C13.0667 80.336 15.9903 83.2 19.6 83.2H78.4C82.0097 83.2 84.9333 80.336 84.9333 76.8V19.2C84.9333 15.664 82.0097 12.8 78.4 12.8ZM35.7831 70.4H26.1464V40.0256H35.7831V70.4ZM30.8667 35.6832C27.7601 35.6832 25.2481 33.216 25.2481 30.1792C25.2481 27.1424 27.7634 24.6784 30.8667 24.6784C33.9635 24.6784 36.4821 27.1456 36.4821 30.1792C36.4821 33.216 33.9635 35.6832 30.8667 35.6832ZM71.8797 70.4H62.2496V55.6288C62.2496 52.1056 62.1843 47.5744 57.2418 47.5744C52.2275 47.5744 51.4565 51.4112 51.4565 55.3728V70.4H41.8264V40.0256H51.071V44.176H51.2017C52.4888 41.7888 55.6313 39.2704 60.319 39.2704C70.0765 39.2704 71.8797 45.5616 71.8797 53.7408V70.4Z" fill="white"/>
</svg>
